<?xml version="1.0" standalone="no"?><!DOCTYPE svg PUBLIC "-//W3C//DTD SVG 1.1//EN" "http://www.w3.org/Graphics/SVG/1.1/DTD/svg11.dtd"><svg t="1548147871493" class="icon" style="" viewBox="0 0 1024 1024" version="1.1" xmlns="http://www.w3.org/2000/svg" p-id="3894" xmlns:xlink="http://www.w3.org/1999/xlink" width="200" height="200"><defs><style type="text/css"></style></defs><path d="M902.5 447.3c-5.5-35.9-36.6-63.5-74-63.5H192.2c-37.4 0-68.5 27.6-74 63.5H64.5v95.2h52.7v5.3c0 101.1 82.3 183.4 183.4 183.4h4.8c101.1 0 183.4-82.3 183.4-183.4v-65.7c7.1-0.9 14.2-1.4 21.5-1.4 7.3 0 14.4 0.5 21.5 1.4v65.7c0 101.1 82.3 183.4 183.4 183.4h4.8c91.3 0 167.3-67.1 181.1-154.6h-34.5c-13.4 68.7-74.1 120.6-146.6 120.6h-4.8c-82.4 0-149.4-67-149.4-149.4V433.6c0-8.7 7.1-15.8 15.8-15.8h246.8c18.6 0 34.3 12.5 39.3 29.5 1 3.6 1.6 7.4 1.6 11.4v83.8h86.9v-95.2h-53.7zM454.8 490v57.8c0 82.4-67 149.4-149.4 149.4h-4.8c-82.4 0-149.4-67-149.4-149.4v-89.1c0-3.9 0.6-7.8 1.6-11.4 4.9-17 20.7-29.5 39.3-29.5H439c8.7 0 15.8 7.1 15.8 15.8V490zM98.5 508.5v-27.2h18.7v27.2H98.5z m411.8-61.8c-7.2 0-14.4 0.4-21.5 1.1v-14.2c0-5.5-0.9-10.8-2.6-15.8h48.1c-1.7 5-2.6 10.3-2.6 15.8v14.2c-7-0.7-14.2-1.1-21.4-1.1z m411.9 61.8h-18.8v-27.2h18.8v27.2z" fill="#dbdbdb" p-id="3895"></path><path d="M227.7 628.4L216.2 641c12 10.9 25.7 19.4 40.8 25.2l6.1-15.9 6.1-15.9c-11.1-4.2-21.2-10.5-30-18.5l-11.5 12.5zM414.9 545.7h-17c0 6.5-0.7 12.8-1.9 18.9-7.5 37.2-36.9 66.5-74.1 74.1-6.1 1.2-12.4 1.9-18.9 1.9v34c71.1 0 128.9-57.8 128.9-128.9h-17zM672.3 666.2l12.1-31.8c-11.1-4.2-21.2-10.5-30-18.5L631.5 641c12 10.9 25.7 19.4 40.8 25.2zM813.2 545.7c0 6.5-0.7 12.8-1.9 18.9-7.5 37.2-36.9 66.5-74.1 74.1-6.1 1.2-12.4 1.9-18.9 1.9v34c71.1 0 128.9-57.8 128.9-128.9h-34z" fill="#dbdbdb" p-id="3896"></path></svg>